<?xml version="1.0" encoding="utf-8"?>
<!-- Generator: Adobe Illustrator 27.0.0, SVG Export Plug-In . SVG Version: 6.00 Build 0)  -->
<svg version="1.1" id="Livello_1" xmlns="http://www.w3.org/2000/svg" xmlns:xlink="http://www.w3.org/1999/xlink" x="0px" y="0px"
	 viewBox="0 0 512 512" style="enable-background:new 0 0 512 512;" xml:space="preserve">
<style type="text/css">
	.st0{fill-rule:evenodd;clip-rule:evenodd;fill:#FFFFFF;}
</style>
<path class="st0" d="M349.7,347.9l93.7,110l-16.3,14l-94-110c-32.3,24.6-68.7,36.8-109.2,36.8c-24.6,0-48-4.8-70.5-14.3
	c-22.4-9.6-41.7-22.4-57.9-38.6c-16.2-16.2-29-35.5-38.6-57.9s-14.3-45.9-14.3-70.5c0-24.6,4.8-48,14.3-70.5S79.4,105.2,95.6,89
	s35.5-29,57.9-38.6s45.9-14.3,70.5-14.3c24.5,0,48,4.8,70.5,14.3s41.7,22.4,57.9,38.6c16.2,16.2,29,35.5,38.6,57.9
	s14.3,45.9,14.3,70.5c0,25.2-4.9,49.1-14.7,71.6C380.8,311.5,367.2,331.2,349.7,347.9L349.7,347.9z M224,377.4
	c29,0,55.7-7.2,80.3-21.5c24.6-14.3,44-33.7,58.3-58.3c14.3-24.6,21.5-51.3,21.5-80.3c0-29-7.2-55.7-21.5-80.3s-33.7-44-58.3-58.3
	C279.7,64.6,253,57.4,224,57.4c-29,0-55.7,7.2-80.3,21.5s-44,33.7-58.3,58.3S64,188.4,64,217.4c0,29,7.2,55.7,21.5,80.3
	s33.7,44,58.3,58.3C168.3,370.2,195,377.4,224,377.4z"/>
</svg>
